<?xml version="1.0" standalone="no"?>
<!DOCTYPE svg PUBLIC "-//W3C//DTD SVG 20010904//EN"
 "http://www.w3.org/TR/2001/REC-SVG-20010904/DTD/svg10.dtd">
<svg version="1.0" xmlns="http://www.w3.org/2000/svg"
 width="400.000000pt" height="400.000000pt" viewBox="0 0 400.000000 400.000000"
 preserveAspectRatio="xMidYMid meet">
<metadata>
Created by potrace 1.14, written by Peter Selinger 2001-2017
</metadata>
<g transform="translate(0.000000,400.000000) scale(0.100000,-0.100000)"
fill="#000000" stroke="none">
<path d="M1500 3940 c0 -64 -6 -70 -70 -68 -57 1 -57 2 -53 -62 l4 -59 -128
-3 -128 -3 -1 -45 c-2 -81 2 -77 -64 -75 l-60 2 0 -64 0 -63 -62 0 -63 0 0
-500 0 -500 63 0 62 0 0 -65 0 -65 60 0 60 0 0 -60 0 -60 65 0 65 0 0 -65 0
-65 185 0 185 0 0 -60 0 -60 315 0 315 0 0 60 0 60 188 2 187 3 3 63 3 62 59
0 60 0 0 60 0 60 60 0 60 0 0 -60 0 -60 65 0 65 0 0 -65 0 -65 60 0 59 0 3
-122 3 -123 63 -3 62 -3 0 126 c0 112 -2 125 -17 126 -10 0 -38 1 -62 2 l-45
2 0 60 -1 60 -62 3 -63 3 0 59 c0 50 -3 60 -17 61 -10 0 -38 1 -62 2 l-45 2 0
60 -1 60 -62 3 -63 3 0 -61 0 -60 -65 0 -65 0 0 -65 0 -65 -185 0 -185 0 0
-60 0 -60 -310 0 -310 0 0 60 0 60 -190 0 -190 0 0 65 0 65 -60 0 -60 0 0 60
0 60 -65 0 -65 0 0 500 0 500 65 0 65 0 0 60 0 59 123 3 122 3 3 63 3 62 59 0
60 0 0 60 0 60 375 0 375 0 0 65 0 65 -375 0 -375 0 0 -60z"/>
<path d="M2260 3872 c-6 -2 -10 -30 -10 -63 l0 -59 125 0 125 0 0 -65 0 -65
125 0 125 0 0 65 0 65 -125 0 -125 0 0 60 c0 33 -3 60 -7 61 -26 3 -225 3
-233 1z"/>
<path d="M2760 3622 c-6 -2 -10 -31 -10 -63 l0 -60 63 3 62 3 0 57 c0 44 -4
58 -15 59 -45 3 -91 4 -100 1z"/>
<path d="M1370 3440 l0 -60 -60 0 -60 0 0 -255 0 -255 60 0 60 0 0 -60 0 -60
125 0 125 0 0 -125 0 -125 65 0 65 0 0 -65 0 -65 60 0 60 0 0 -60 0 -60 65 0
65 0 0 60 0 59 63 3 62 3 3 63 3 62 59 0 60 0 0 125 0 125 125 0 125 0 0 60 0
59 63 3 62 3 0 250 0 250 -62 3 -63 3 0 59 0 60 -190 0 -190 0 0 -60 0 -60
-60 0 -60 0 0 -250 0 -250 -60 0 -60 0 -2 248 -3 247 -62 3 -63 3 0 59 0 60
-190 0 -190 0 0 -60z m380 -315 l0 -245 -185 0 -185 0 0 60 0 60 125 0 125 0
0 125 0 125 -65 0 -65 0 0 -60 0 -60 -60 0 -60 0 0 120 0 120 185 0 185 0 0
-245z m750 0 l0 -245 -185 0 -185 0 0 60 0 60 125 0 125 0 0 125 0 125 -65 0
-65 0 0 -60 0 -60 -60 0 -60 0 0 120 0 120 185 0 185 0 0 -245z m-630 -315 l0
-60 65 0 65 0 0 60 0 60 60 0 60 0 0 -185 0 -185 -60 0 -60 0 0 -60 0 -60 -60
0 -60 0 0 60 0 60 -65 0 -65 0 0 185 0 185 60 0 60 0 0 -60z"/>
<path d="M2870 3000 l0 -500 65 0 65 0 0 500 0 500 -65 0 -65 0 0 -500z"/>
<path d="M879 2366 c-1 -6 -2 -33 -3 -61 l-1 -50 -62 -3 -63 -3 0 -65 0 -65
63 3 62 3 3 63 3 62 60 0 60 0 -3 63 -3 62 -57 1 c-34 0 -59 -4 -59 -10z"/>
<path d="M627 2116 c-1 -6 -2 -62 -1 -123 1 -62 -1 -113 -5 -114 -3 0 -31 -1
-61 -2 l-55 -2 -3 -187 -2 -188 -60 0 c-33 0 -60 -3 -61 -7 -1 -10 -1 -322 0
-348 1 -18 8 -20 59 -20 l57 0 3 188 2 187 65 0 65 0 0 185 0 185 60 0 61 0
-3 128 -3 127 -57 1 c-32 0 -59 -4 -61 -10z"/>
<path d="M1000 1940 l0 -59 -62 -3 -63 -3 -3 -122 -3 -123 -59 0 -60 0 0 -380
0 -380 60 0 60 0 0 -185 0 -185 -60 0 -60 0 0 125 0 125 -60 0 c-33 0 -60 -4
-61 -10 0 -5 -1 -48 -1 -95 0 -161 -7 -145 62 -145 l59 0 3 -62 3 -63 55 -2
c30 -1 58 -2 63 -2 4 -1 6 -13 6 -28 -1 -16 -1 -43 0 -60 l1 -33 125 0 125 0
-5 -54 c-5 -66 3 -74 70 -72 l50 1 3 122 3 122 62 3 62 3 3 62 3 63 184 0 185
0 0 -65 0 -65 60 0 60 0 0 -120 0 -120 -120 0 -120 0 0 60 0 60 -65 0 -66 0 3
-62 3 -63 60 -1 60 0 2 -45 c1 -24 2 -52 2 -61 1 -16 14 -18 121 -18 107 0
120 2 121 18 0 9 1 37 2 61 l2 45 60 0 60 1 3 122 3 122 62 3 62 3 3 63 3 62
184 0 185 0 0 -65 0 -65 60 0 60 0 0 -120 0 -120 -120 0 -120 0 0 60 0 60 -65
0 -65 0 0 -60 c0 -41 4 -60 13 -61 6 0 35 -2 62 -3 l50 -2 2 -44 c1 -25 2 -53
2 -62 1 -16 14 -18 121 -18 107 0 120 2 121 18 0 9 1 37 2 62 l2 45 45 2 c25
1 53 2 63 2 14 1 17 11 17 61 l0 60 125 0 125 0 0 65 0 65 -60 0 -60 0 0 60 0
60 60 0 60 0 0 -60 c0 -41 4 -60 13 -61 6 0 31 -2 54 -3 60 -5 62 -1 54 112
-1 8 -20 12 -61 12 l-60 0 0 185 0 184 63 3 62 3 0 375 0 375 -62 3 -63 3 0
124 0 125 -60 0 -60 0 0 60 0 60 -65 0 -65 0 0 -65 0 -65 60 0 59 0 3 -122 3
-123 63 -3 62 -3 0 -369 0 -369 -62 -3 -63 -3 -3 -187 -2 -188 -60 0 -60 0 0
-60 0 -60 -60 0 -60 0 0 60 0 60 -65 0 -65 0 0 65 0 65 -187 -2 -188 -3 -3
-62 -3 -63 -59 0 -60 0 0 -60 0 -60 -60 0 -60 0 0 60 0 60 -65 0 -65 0 0 65 0
65 -187 -2 -188 -3 -3 -62 -3 -63 -59 0 -60 0 0 -60 0 -60 -60 0 -60 0 0 60 0
60 -65 0 -65 0 0 190 0 190 -60 0 -60 0 0 370 0 370 60 0 60 0 0 125 0 124 63
3 62 3 3 63 3 62 -66 0 -65 0 0 -60z m0 -1500 l0 -60 -60 0 -60 0 0 60 0 60
60 0 60 0 0 -60z"/>
<path d="M3267 1872 c-15 -3 -17 -23 -17 -188 l0 -184 60 0 c50 0 60 3 61 18
4 77 -1 345 -6 350 -7 7 -69 9 -98 4z"/>
<path d="M3370 1315 l0 -185 -60 0 -60 0 0 -190 0 -190 -65 0 -65 0 0 -125 0
-125 65 0 65 0 0 125 0 125 60 0 c50 0 60 3 61 18 0 9 1 94 2 187 l2 170 45 2
c25 1 53 2 63 2 16 1 17 17 17 186 l0 185 -65 0 -65 0 0 -185z"/>
<path d="M500 940 l0 -190 65 0 65 0 -2 188 -3 187 -62 3 -63 3 0 -191z"/>
<path d="M1250 65 l0 -65 125 0 125 0 0 65 0 65 -125 0 -125 0 0 -65z"/>
<path d="M2000 65 l0 -65 125 0 125 0 0 65 0 65 -125 0 -125 0 0 -65z"/>
</g>
</svg>
