<svg xmlns="http://www.w3.org/2000/svg" viewBox="0 0 878 928"><defs><clipPath id="a"><path fill="none" d="M0 0h878v928H0V0z"/></clipPath></defs><g clip-path="url(#a)"><path fill="#FFF" d="M0 0h878v928H0z"/><path fill="#1565C0" paint-order="stroke fill markers" fill-rule="evenodd" d="M279.519 852.842h321.84l227.575-227.576v-321.84L601.36 75.851h-321.84L51.943 303.426v321.84z" fill-opacity=".098"/><path fill="none" stroke="#1565C0" paint-order="fill stroke markers" d="M279.519 852.842h321.84l227.575-227.576v-321.84L601.36 75.851h-321.84L51.943 303.426v321.84z" stroke-opacity=".8" stroke-linecap="round" stroke-linejoin="round" stroke-miterlimit="10" stroke-width="2.5"/><path paint-order="stroke fill markers" d="M402.17 556.734a100 100 0 0 0 76.537 0l-38.268-92.388z" fill-opacity=".098"/><path fill="none" stroke="#000" paint-order="fill stroke markers" d="M402.17 556.734a100 100 0 0 0 76.537 0l-38.268-92.388z" stroke-opacity=".6" stroke-linecap="round" stroke-linejoin="round" stroke-miterlimit="10" stroke-width="2"/><text font-family="geogebra-sans-serif, sans-serif" font-size="16" text-decoration="normal" x="437" y="528" dominant-baseline="alphabetic">β</text><text fill="none" stroke="#FFF" font-family="geogebra-sans-serif, sans-serif" font-size="16" text-decoration="normal" x="437" y="528" dominant-baseline="alphabetic" stroke-linejoin="bevel" stroke-miterlimit="10" stroke-width="3">β</text><text font-family="geogebra-sans-serif, sans-serif" font-size="16" text-decoration="normal" x="437" y="528" dominant-baseline="alphabetic">β</text><path paint-order="stroke fill markers" d="M122.654 695.977c28.6-28.6 37.155-71.611 21.677-108.979-15.478-37.367-51.941-61.732-92.388-61.732v100z" fill-opacity=".098"/><path fill="none" stroke="#000" paint-order="fill stroke markers" d="M122.654 695.977c28.6-28.6 37.155-71.611 21.677-108.979-15.478-37.367-51.941-61.732-92.388-61.732v100z" stroke-opacity=".6" stroke-linecap="round" stroke-linejoin="round" stroke-miterlimit="10" stroke-width="2"/><text font-family="geogebra-sans-serif, sans-serif" font-size="16" text-decoration="normal" x="103" y="607" dominant-baseline="alphabetic">α</text><text fill="none" stroke="#FFF" font-family="geogebra-sans-serif, sans-serif" font-size="16" text-decoration="normal" x="103" y="607" dominant-baseline="alphabetic" stroke-linejoin="bevel" stroke-miterlimit="10" stroke-width="3">α</text><text font-family="geogebra-sans-serif, sans-serif" font-size="16" text-decoration="normal" x="103" y="607" dominant-baseline="alphabetic">α</text><path fill="none" stroke="#1565C0" paint-order="fill stroke markers" d="M279.519 852.842h321.84M601.359 852.842l227.575-227.576M828.934 625.266v-321.84M828.934 303.426 601.36 75.851M601.359 75.851h-321.84M279.519 75.851 51.943 303.426M51.943 303.426v321.84M51.943 625.266 279.52 852.842" stroke-opacity=".8" stroke-linecap="round" stroke-linejoin="round" stroke-miterlimit="10" stroke-width="2.5"/><path fill="none" stroke="#616161" paint-order="fill stroke markers" d="M279.519 852.842 601.359 75.85M279.519 75.851l321.84 776.99" stroke-opacity=".8" stroke-linecap="round" stroke-linejoin="round" stroke-miterlimit="10" stroke-width="2.5"/><path fill="#1565C0" paint-order="stroke fill markers" d="M284.519 852.842a5 5 0 1 1-10 0 5 5 0 0 1 10 0z"/><path fill="none" stroke="#000" paint-order="fill stroke markers" d="M284.519 852.842a5 5 0 1 1-10 0 5 5 0 0 1 10 0z" stroke-linecap="round" stroke-linejoin="round" stroke-miterlimit="10"/><path fill="#1565C0" paint-order="stroke fill markers" d="M606.359 852.842a5 5 0 1 1-10 0 5 5 0 0 1 10 0z"/><path fill="none" stroke="#000" paint-order="fill stroke markers" d="M606.359 852.842a5 5 0 1 1-10 0 5 5 0 0 1 10 0z" stroke-linecap="round" stroke-linejoin="round" stroke-miterlimit="10"/><path fill="#616161" paint-order="stroke fill markers" d="M833.934 625.266a5 5 0 1 1-10 0 5 5 0 0 1 10 0z"/><path fill="none" stroke="#000" paint-order="fill stroke markers" d="M833.934 625.266a5 5 0 1 1-10 0 5 5 0 0 1 10 0z" stroke-linecap="round" stroke-linejoin="round" stroke-miterlimit="10"/><path fill="#616161" paint-order="stroke fill markers" d="M833.934 303.426a5 5 0 1 1-10 0 5 5 0 0 1 10 0z"/><path fill="none" stroke="#000" paint-order="fill stroke markers" d="M833.934 303.426a5 5 0 1 1-10 0 5 5 0 0 1 10 0z" stroke-linecap="round" stroke-linejoin="round" stroke-miterlimit="10"/><path fill="#616161" paint-order="stroke fill markers" d="M606.359 75.851a5 5 0 1 1-10 0 5 5 0 0 1 10 0z"/><path fill="none" stroke="#000" paint-order="fill stroke markers" d="M606.359 75.851a5 5 0 1 1-10 0 5 5 0 0 1 10 0z" stroke-linecap="round" stroke-linejoin="round" stroke-miterlimit="10"/><path fill="#616161" paint-order="stroke fill markers" d="M284.519 75.851a5 5 0 1 1-10 0 5 5 0 0 1 10 0z"/><path fill="none" stroke="#000" paint-order="fill stroke markers" d="M284.519 75.851a5 5 0 1 1-10 0 5 5 0 0 1 10 0z" stroke-linecap="round" stroke-linejoin="round" stroke-miterlimit="10"/><path fill="#616161" paint-order="stroke fill markers" d="M56.943 303.426a5 5 0 1 1-10 0 5 5 0 0 1 10 0z"/><path fill="none" stroke="#000" paint-order="fill stroke markers" d="M56.943 303.426a5 5 0 1 1-10 0 5 5 0 0 1 10 0z" stroke-linecap="round" stroke-linejoin="round" stroke-miterlimit="10"/><path fill="#616161" paint-order="stroke fill markers" d="M56.943 625.266a5 5 0 1 1-10 0 5 5 0 0 1 10 0z"/><path fill="none" stroke="#000" paint-order="fill stroke markers" d="M56.943 625.266a5 5 0 1 1-10 0 5 5 0 0 1 10 0z" stroke-linecap="round" stroke-linejoin="round" stroke-miterlimit="10"/><path fill="#616161" paint-order="stroke fill markers" d="M444.439 464.346a4 4 0 1 1-8 0 4 4 0 0 1 8 0z"/><path fill="none" stroke="#000" paint-order="fill stroke markers" d="M444.439 464.346a4 4 0 1 1-8 0 4 4 0 0 1 8 0z" stroke-linecap="round" stroke-linejoin="round" stroke-miterlimit="10"/></g></svg>